M48
; DRILL file {KiCad (6.0.11)} date Wed Feb  1 23:46:21 2023
; FORMAT={-:-/ absolute / inch / decimal}
; #@! TF.CreationDate,2023-02-01T23:46:21-08:00
; #@! TF.GenerationSoftware,Kicad,Pcbnew,(6.0.11)
; #@! TF.FileFunction,Plated,1,2,PTH
FMAT,2
INCH
; #@! TA.AperFunction,Plated,PTH,ViaDrill
T1C0.0157
; #@! TA.AperFunction,Plated,PTH,ComponentDrill
T2C0.0276
; #@! TA.AperFunction,Plated,PTH,ComponentDrill
T3C0.0295
; #@! TA.AperFunction,Plated,PTH,ComponentDrill
T4C0.0307
; #@! TA.AperFunction,Plated,PTH,ComponentDrill
T5C0.0354
; #@! TA.AperFunction,Plated,PTH,ComponentDrill
T6C0.0400
; #@! TA.AperFunction,Plated,PTH,ComponentDrill
T7C0.0433
%
G90
G05
T1
X6.0Y-2.3
X7.0Y-2.3
T2
X7.0Y-2.6
X7.0Y-2.9
X7.2Y-2.6
X7.2Y-2.9
X7.4Y-2.6
X7.4Y-2.9
T3
X5.921Y-3.1
X5.971Y-3.1
X6.021Y-3.1
X6.1876Y-3.1
X6.2376Y-3.1
X6.2876Y-3.1
X6.4543Y-3.1
X6.5043Y-3.1
X6.5543Y-3.1
X6.721Y-3.1
X6.771Y-3.1
X6.821Y-3.1
T4
X5.95Y-2.4437
X5.95Y-2.7563
X6.05Y-2.4437
X6.05Y-2.7563
X6.15Y-2.4437
X6.15Y-2.7563
X6.25Y-2.4437
X6.25Y-2.7563
X6.35Y-2.4437
X6.35Y-2.7563
X6.45Y-2.4437
X6.45Y-2.7563
X6.55Y-2.4437
X6.55Y-2.7563
X6.65Y-2.4437
X6.65Y-2.7563
T5
X5.3413Y-1.5016
X5.3413Y-1.6
X5.3413Y-1.6984
X5.985Y-3.3192
X5.985Y-3.4042
X5.985Y-3.4892
X5.985Y-3.5742
X6.4234Y-3.3192
X6.4234Y-3.4042
X6.4234Y-3.4892
X6.4234Y-3.5742
X6.8617Y-3.3192
X6.8617Y-3.4042
X6.8617Y-3.4892
X6.8617Y-3.5742
X7.3Y-3.3192
X7.3Y-3.4042
X7.3Y-3.4892
X7.3Y-3.5742
T6
X6.1Y-1.55
X6.1Y-1.65
X6.1Y-1.75
X6.1Y-1.85
X6.1Y-1.95
X6.1Y-2.05
X6.2Y-1.5
X6.2Y-2.1
X6.3Y-1.5
X6.3Y-2.1
X6.4Y-1.5
X6.4Y-2.1
X6.5Y-1.5
X6.5Y-2.1
X6.5453Y-1.6152
X6.6Y-1.5
X6.6Y-2.1
X6.6453Y-1.6152
X6.7Y-1.5
X6.7Y-2.1
X6.8Y-1.5
X6.8Y-2.1
X6.9Y-1.5
X6.9Y-2.1
X6.9553Y-1.6152
X7.0Y-1.5
X7.0Y-2.1
X7.0553Y-1.6152
X7.1Y-1.5
X7.1Y-2.1
X7.2Y-1.5
X7.2Y-2.1
X7.3Y-1.5
X7.3Y-2.1
T7
X5.2133Y-2.0114
X5.2133Y-2.1886
X5.2133Y-2.4114
X5.2133Y-2.5886
X5.2133Y-2.8114
X5.2133Y-2.9886
X5.4692Y-2.0114
X5.4692Y-2.1886
X5.4692Y-2.4114
X5.4692Y-2.5886
X5.4692Y-2.8114
X5.4692Y-2.9886
T0
M30
