%TF.GenerationSoftware,KiCad,Pcbnew,(6.0.11)*%
%TF.CreationDate,2023-02-01T23:46:18-08:00*%
%TF.ProjectId,ath,6174682e-6b69-4636-9164-5f7063625858,Original*%
%TF.SameCoordinates,Original*%
%TF.FileFunction,Copper,L2,Bot*%
%TF.FilePolarity,Positive*%
%FSLAX46Y46*%
G04 Gerber Fmt 4.6, Leading zero omitted, Abs format (unit mm)*
G04 Created by KiCad (PCBNEW (6.0.11)) date 2023-02-01 23:46:18*
%MOMM*%
%LPD*%
G01*
G04 APERTURE LIST*
%TA.AperFunction,ComponentPad*%
%ADD10C,1.400000*%
%TD*%
%TA.AperFunction,ComponentPad*%
%ADD11O,1.400000X1.400000*%
%TD*%
%TA.AperFunction,ComponentPad*%
%ADD12R,1.130000X1.130000*%
%TD*%
%TA.AperFunction,ComponentPad*%
%ADD13C,1.130000*%
%TD*%
%TA.AperFunction,ComponentPad*%
%ADD14R,1.050000X1.500000*%
%TD*%
%TA.AperFunction,ComponentPad*%
%ADD15O,1.050000X1.500000*%
%TD*%
%TA.AperFunction,ComponentPad*%
%ADD16C,1.800000*%
%TD*%
%TA.AperFunction,ComponentPad*%
%ADD17R,1.800000X1.800000*%
%TD*%
%TA.AperFunction,ComponentPad*%
%ADD18R,1.408000X1.408000*%
%TD*%
%TA.AperFunction,ComponentPad*%
%ADD19C,1.408000*%
%TD*%
%TA.AperFunction,ComponentPad*%
%ADD20C,2.000000*%
%TD*%
%TA.AperFunction,ComponentPad*%
%ADD21C,1.727200*%
%TD*%
%TA.AperFunction,ComponentPad*%
%ADD22R,1.727200X1.727200*%
%TD*%
%TA.AperFunction,ViaPad*%
%ADD23C,0.800000*%
%TD*%
%TA.AperFunction,Conductor*%
%ADD24C,0.250000*%
%TD*%
G04 APERTURE END LIST*
D10*
%TO.P,R2,1*%
%TO.N,Net-(CTRL0-PadD10)*%
X187960000Y-66040000D03*
D11*
%TO.P,R2,2*%
%TO.N,Net-(D0-Pad4)*%
X187960000Y-73660000D03*
%TD*%
D12*
%TO.P,IC0,1,QB*%
%TO.N,Net-(IC0-Pad1)*%
X151130000Y-70010000D03*
D13*
%TO.P,IC0,2,QC*%
%TO.N,Net-(IC0-Pad2)*%
X153670000Y-70010000D03*
%TO.P,IC0,3,QD*%
%TO.N,Net-(IC0-Pad3)*%
X156210000Y-70010000D03*
%TO.P,IC0,4,QE*%
%TO.N,unconnected-(IC0-Pad4)*%
X158750000Y-70010000D03*
%TO.P,IC0,5,QF*%
%TO.N,unconnected-(IC0-Pad5)*%
X161290000Y-70010000D03*
%TO.P,IC0,6,QG*%
%TO.N,unconnected-(IC0-Pad6)*%
X163830000Y-70010000D03*
%TO.P,IC0,7,QH*%
%TO.N,unconnected-(IC0-Pad7)*%
X166370000Y-70010000D03*
%TO.P,IC0,8,GND*%
%TO.N,Net-(CTRL0-PadGND1)*%
X168910000Y-70010000D03*
%TO.P,IC0,9,QH'*%
%TO.N,unconnected-(IC0-Pad9)*%
X168910000Y-62070000D03*
%TO.P,IC0,10,~{SRCLR}*%
%TO.N,Net-(CTRL0-PadVcc1)*%
X166370000Y-62070000D03*
%TO.P,IC0,11,SRCLK*%
%TO.N,Net-(CTRL0-PadD6)*%
X163830000Y-62070000D03*
%TO.P,IC0,12,RCLK*%
%TO.N,Net-(CTRL0-PadD5)*%
X161290000Y-62070000D03*
%TO.P,IC0,13,~{OE}*%
%TO.N,Net-(CTRL0-PadGND1)*%
X158750000Y-62070000D03*
%TO.P,IC0,14,SER*%
%TO.N,Net-(CTRL0-PadD4)*%
X156210000Y-62070000D03*
%TO.P,IC0,15,QA*%
%TO.N,Net-(IC0-Pad15)*%
X153670000Y-62070000D03*
%TO.P,IC0,16,VCC*%
%TO.N,Net-(CTRL0-PadVcc1)*%
X151130000Y-62070000D03*
%TD*%
D14*
%TO.P,T3,1,E*%
%TO.N,Net-(CTRL0-PadGND1)*%
X170712712Y-78740000D03*
D15*
%TO.P,T3,2,B*%
%TO.N,Net-(IC0-Pad3)*%
X171982712Y-78740000D03*
%TO.P,T3,3,C*%
%TO.N,Net-(D3-Pad2)*%
X173252712Y-78740000D03*
%TD*%
D14*
%TO.P,T1,1,E*%
%TO.N,Net-(CTRL0-PadGND1)*%
X157166045Y-78740000D03*
D15*
%TO.P,T1,2,B*%
%TO.N,Net-(IC0-Pad1)*%
X158436045Y-78740000D03*
%TO.P,T1,3,C*%
%TO.N,Net-(D1-Pad2)*%
X159706045Y-78740000D03*
%TD*%
D16*
%TO.P,D2,1,RK*%
%TO.N,Net-(D0-Pad1)*%
X174286666Y-84306500D03*
D17*
%TO.P,D2,2,A*%
%TO.N,Net-(D2-Pad2)*%
X174286666Y-86465500D03*
D16*
%TO.P,D2,3,GK*%
%TO.N,Net-(D0-Pad3)*%
X174286666Y-88624500D03*
%TO.P,D2,4,BK*%
%TO.N,Net-(D0-Pad4)*%
X174286666Y-90783500D03*
%TD*%
D14*
%TO.P,T2,1,E*%
%TO.N,Net-(CTRL0-PadGND1)*%
X163939378Y-78740000D03*
D15*
%TO.P,T2,2,B*%
%TO.N,Net-(IC0-Pad2)*%
X165209378Y-78740000D03*
%TO.P,T2,3,C*%
%TO.N,Net-(D2-Pad2)*%
X166479378Y-78740000D03*
%TD*%
D18*
%TO.P,PSW0,1*%
%TO.N,Net-(CTRL0-PadRAW)*%
X135668872Y-43140000D03*
D19*
%TO.P,PSW0,2*%
%TO.N,Net-(PSW0-Pad2)*%
X135668872Y-40640000D03*
%TO.P,PSW0,3*%
%TO.N,unconnected-(PSW0-Pad3)*%
X135668872Y-38140000D03*
%TD*%
D20*
%TO.P,SW2,1,1*%
%TO.N,Net-(CTRL0-PadVcc1)*%
X138918872Y-71410000D03*
X132418872Y-71410000D03*
%TO.P,SW2,2,2*%
%TO.N,Net-(CTRL0-PadA2)*%
X138918872Y-75910000D03*
X132418872Y-75910000D03*
%TD*%
D16*
%TO.P,D0,1,RK*%
%TO.N,Net-(D0-Pad1)*%
X152020000Y-84306500D03*
D17*
%TO.P,D0,2,A*%
%TO.N,Net-(D0-Pad2)*%
X152020000Y-86465500D03*
D16*
%TO.P,D0,3,GK*%
%TO.N,Net-(D0-Pad3)*%
X152020000Y-88624500D03*
%TO.P,D0,4,BK*%
%TO.N,Net-(D0-Pad4)*%
X152020000Y-90783500D03*
%TD*%
D20*
%TO.P,SW1,1,1*%
%TO.N,Net-(CTRL0-PadVcc1)*%
X138918872Y-61250000D03*
X132418872Y-61250000D03*
%TO.P,SW1,2,2*%
%TO.N,Net-(CTRL0-PadA1)*%
X138918872Y-65750000D03*
X132418872Y-65750000D03*
%TD*%
D16*
%TO.P,D1,1,RK*%
%TO.N,Net-(D0-Pad1)*%
X163153333Y-84306500D03*
D17*
%TO.P,D1,2,A*%
%TO.N,Net-(D1-Pad2)*%
X163153333Y-86465500D03*
D16*
%TO.P,D1,3,GK*%
%TO.N,Net-(D0-Pad3)*%
X163153333Y-88624500D03*
%TO.P,D1,4,BK*%
%TO.N,Net-(D0-Pad4)*%
X163153333Y-90783500D03*
%TD*%
D20*
%TO.P,SW0,1,1*%
%TO.N,Net-(CTRL0-PadVcc1)*%
X132418872Y-51090000D03*
X138918872Y-51090000D03*
%TO.P,SW0,2,2*%
%TO.N,Net-(CTRL0-PadA0)*%
X132418872Y-55590000D03*
X138918872Y-55590000D03*
%TD*%
D21*
%TO.P,CTRL0,A0,A0*%
%TO.N,Net-(CTRL0-PadA0)*%
X175260000Y-38100000D03*
%TO.P,CTRL0,A1,A1*%
%TO.N,Net-(CTRL0-PadA1)*%
X172720000Y-38100000D03*
%TO.P,CTRL0,A2,A2*%
%TO.N,Net-(CTRL0-PadA2)*%
X170180000Y-38100000D03*
%TO.P,CTRL0,A3,A3*%
%TO.N,unconnected-(CTRL0-PadA3)*%
X167640000Y-38100000D03*
%TO.P,CTRL0,A4,A4_SDA*%
%TO.N,unconnected-(CTRL0-PadA4)*%
X168790600Y-41025900D03*
%TO.P,CTRL0,A5,A5_SCL*%
%TO.N,unconnected-(CTRL0-PadA5)*%
X166250600Y-41025900D03*
%TO.P,CTRL0,A6,A6*%
%TO.N,unconnected-(CTRL0-PadA6)*%
X179204600Y-41025900D03*
%TO.P,CTRL0,A7,A7*%
%TO.N,unconnected-(CTRL0-PadA7)*%
X176664000Y-41025900D03*
%TO.P,CTRL0,D0,D0_RXI*%
%TO.N,unconnected-(CTRL0-PadD0)*%
X160020000Y-53340000D03*
%TO.P,CTRL0,D1,D1_TXO*%
%TO.N,unconnected-(CTRL0-PadD1)*%
X157480000Y-53340000D03*
%TO.P,CTRL0,D2,D2_INT0*%
%TO.N,unconnected-(CTRL0-PadD2)*%
X167640000Y-53340000D03*
%TO.P,CTRL0,D3,D3_INT1*%
%TO.N,Net-(CTRL0-PadD3)*%
X170180000Y-53340000D03*
%TO.P,CTRL0,D4,D4*%
%TO.N,Net-(CTRL0-PadD4)*%
X172720000Y-53340000D03*
%TO.P,CTRL0,D5,D5*%
%TO.N,Net-(CTRL0-PadD5)*%
X175260000Y-53340000D03*
%TO.P,CTRL0,D6,D6*%
%TO.N,Net-(CTRL0-PadD6)*%
X177800000Y-53340000D03*
%TO.P,CTRL0,D7,D7*%
%TO.N,unconnected-(CTRL0-PadD7)*%
X180340000Y-53340000D03*
%TO.P,CTRL0,D8,D8*%
%TO.N,unconnected-(CTRL0-PadD8)*%
X182880000Y-53340000D03*
%TO.P,CTRL0,D9,D9*%
%TO.N,Net-(CTRL0-PadD9)*%
X185420000Y-53340000D03*
%TO.P,CTRL0,D10,D10_CS*%
%TO.N,Net-(CTRL0-PadD10)*%
X185420000Y-38100000D03*
%TO.P,CTRL0,D11,D11_MISO*%
%TO.N,unconnected-(CTRL0-PadD11)*%
X182880000Y-38100000D03*
%TO.P,CTRL0,D12,D12_MOSI*%
%TO.N,unconnected-(CTRL0-PadD12)*%
X180340000Y-38100000D03*
%TO.P,CTRL0,D13,D13_SCK*%
%TO.N,unconnected-(CTRL0-PadD13)*%
X177800000Y-38100000D03*
%TO.P,CTRL0,DTR,~{DTR}*%
%TO.N,unconnected-(CTRL0-PadDTR)*%
X154940000Y-39370000D03*
D22*
%TO.P,CTRL0,GND1,GND*%
%TO.N,Net-(CTRL0-PadGND1)*%
X165100000Y-53340000D03*
%TO.P,CTRL0,GND2,GND*%
%TO.N,Net-(CTRL0-PadGND2)*%
X160020000Y-38100000D03*
%TO.P,CTRL0,GND4,GND*%
%TO.N,unconnected-(CTRL0-PadGND4)*%
X154940000Y-49530000D03*
%TO.P,CTRL0,GND5,GND*%
%TO.N,unconnected-(CTRL0-PadGND5)*%
X154940000Y-52070000D03*
D21*
%TO.P,CTRL0,RAW,RAW*%
%TO.N,Net-(CTRL0-PadRAW)*%
X157480000Y-38100000D03*
%TO.P,CTRL0,RST1,RESET*%
%TO.N,unconnected-(CTRL0-PadRST1)*%
X162560000Y-53340000D03*
%TO.P,CTRL0,RST2,RESET*%
%TO.N,unconnected-(CTRL0-PadRST2)*%
X162560000Y-38100000D03*
%TO.P,CTRL0,RXI,RXI*%
%TO.N,unconnected-(CTRL0-PadRXI)*%
X154940000Y-44450000D03*
%TO.P,CTRL0,TXO,TXO*%
%TO.N,unconnected-(CTRL0-PadTXO)*%
X154940000Y-41910000D03*
%TO.P,CTRL0,Vcc1,Vcc*%
%TO.N,Net-(CTRL0-PadVcc1)*%
X165100000Y-38100000D03*
%TO.P,CTRL0,Vcc2,Vcc*%
%TO.N,unconnected-(CTRL0-PadVcc2)*%
X154940000Y-46990000D03*
%TD*%
D16*
%TO.P,D3,1,RK*%
%TO.N,Net-(D0-Pad1)*%
X185420000Y-84306500D03*
D17*
%TO.P,D3,2,A*%
%TO.N,Net-(D3-Pad2)*%
X185420000Y-86465500D03*
D16*
%TO.P,D3,3,GK*%
%TO.N,Net-(D0-Pad3)*%
X185420000Y-88624500D03*
%TO.P,D3,4,BK*%
%TO.N,Net-(D0-Pad4)*%
X185420000Y-90783500D03*
%TD*%
D10*
%TO.P,R0,1*%
%TO.N,Net-(CTRL0-PadD3)*%
X177800000Y-66040000D03*
D11*
%TO.P,R0,2*%
%TO.N,Net-(D0-Pad1)*%
X177800000Y-73660000D03*
%TD*%
D14*
%TO.P,T0,1,E*%
%TO.N,Net-(CTRL0-PadGND1)*%
X150392712Y-78740000D03*
D15*
%TO.P,T0,2,B*%
%TO.N,Net-(IC0-Pad15)*%
X151662712Y-78740000D03*
%TO.P,T0,3,C*%
%TO.N,Net-(D0-Pad2)*%
X152932712Y-78740000D03*
%TD*%
D10*
%TO.P,R1,1*%
%TO.N,Net-(CTRL0-PadD9)*%
X182880000Y-66040000D03*
D11*
%TO.P,R1,2*%
%TO.N,Net-(D0-Pad3)*%
X182880000Y-73660000D03*
%TD*%
D23*
%TO.N,Net-(CTRL0-PadVcc1)*%
X177800000Y-58420000D03*
X152400000Y-58420000D03*
%TD*%
D24*
%TO.N,Net-(CTRL0-PadA0)*%
X146420000Y-53340000D02*
X146420000Y-40267208D01*
X146420000Y-40267208D02*
X152027208Y-34660000D01*
X144170000Y-55590000D02*
X146420000Y-53340000D01*
X171820000Y-34660000D02*
X175260000Y-38100000D01*
X152027208Y-34660000D02*
X171820000Y-34660000D01*
X132418872Y-55590000D02*
X138918872Y-55590000D01*
X138918872Y-55590000D02*
X144170000Y-55590000D01*
%TO.N,Net-(CTRL0-PadA1)*%
X146870000Y-40453604D02*
X152213604Y-35110000D01*
X144620000Y-65750000D02*
X146870000Y-63500000D01*
X152213604Y-35110000D02*
X169730000Y-35110000D01*
X132418872Y-65750000D02*
X138918872Y-65750000D01*
X169730000Y-35110000D02*
X172720000Y-38100000D01*
X146870000Y-63500000D02*
X146870000Y-40453604D01*
X138918872Y-65750000D02*
X144620000Y-65750000D01*
%TO.N,Net-(CTRL0-PadA2)*%
X147320000Y-40640000D02*
X152400000Y-35560000D01*
X145070000Y-75910000D02*
X147320000Y-73660000D01*
X170180000Y-38100000D02*
X167640000Y-35560000D01*
X132418872Y-75910000D02*
X138918872Y-75910000D01*
X167640000Y-35560000D02*
X152400000Y-35560000D01*
X138918872Y-75910000D02*
X145070000Y-75910000D01*
X147320000Y-73660000D02*
X147320000Y-40640000D01*
%TO.N,Net-(CTRL0-PadD3)*%
X172720000Y-55880000D02*
X177800000Y-55880000D01*
X177800000Y-63500000D02*
X177800000Y-66040000D01*
X180340000Y-58420000D02*
X180340000Y-60960000D01*
X177800000Y-55880000D02*
X180340000Y-58420000D01*
X170180000Y-53340000D02*
X172720000Y-55880000D01*
X180340000Y-60960000D02*
X177800000Y-63500000D01*
%TO.N,Net-(CTRL0-PadD9)*%
X185420000Y-53340000D02*
X185420000Y-55880000D01*
X182880000Y-58420000D02*
X182880000Y-66040000D01*
X185420000Y-55880000D02*
X182880000Y-58420000D01*
%TO.N,Net-(CTRL0-PadGND1)*%
X170712712Y-78740000D02*
X170712712Y-80747288D01*
X157480000Y-81280000D02*
X150392712Y-81280000D01*
X165100000Y-81280000D02*
X157480000Y-81280000D01*
X147770000Y-57970000D02*
X147770000Y-79190000D01*
X170712712Y-80747288D02*
X170180000Y-81280000D01*
X165100000Y-81280000D02*
X163939378Y-81280000D01*
X149860000Y-55880000D02*
X147770000Y-57970000D01*
X170180000Y-81280000D02*
X165100000Y-81280000D01*
X162560000Y-55880000D02*
X149860000Y-55880000D01*
X157166045Y-81280000D02*
X157166045Y-78740000D01*
X149860000Y-81280000D02*
X150392712Y-81280000D01*
X172720000Y-73660000D02*
X170180000Y-73660000D01*
X170712712Y-78740000D02*
X170712712Y-74192712D01*
X157480000Y-81280000D02*
X157166045Y-81280000D01*
X165100000Y-53340000D02*
X162560000Y-55880000D01*
X158750000Y-60140000D02*
X160020000Y-58870000D01*
X147770000Y-79190000D02*
X149860000Y-81280000D01*
X173170000Y-58870000D02*
X175260000Y-60960000D01*
X150392712Y-81280000D02*
X150392712Y-78740000D01*
X175260000Y-71120000D02*
X172720000Y-73660000D01*
X163939378Y-81280000D02*
X163939378Y-78740000D01*
X175260000Y-60960000D02*
X175260000Y-71120000D01*
X158750000Y-62070000D02*
X158750000Y-60140000D01*
X160020000Y-58870000D02*
X173170000Y-58870000D01*
X170180000Y-73660000D02*
X168910000Y-72390000D01*
X168910000Y-72390000D02*
X168910000Y-70010000D01*
X170712712Y-74192712D02*
X170180000Y-73660000D01*
%TO.N,Net-(CTRL0-PadVcc1)*%
X152240000Y-58420000D02*
X151130000Y-59530000D01*
X177800000Y-58420000D02*
X152400000Y-58420000D01*
X151130000Y-59530000D02*
X151130000Y-62070000D01*
X152400000Y-58420000D02*
X152240000Y-58420000D01*
%TO.N,Net-(CTRL0-PadD10)*%
X185420000Y-38100000D02*
X187960000Y-40640000D01*
X187960000Y-40640000D02*
X187960000Y-66040000D01*
%TO.N,Net-(D0-Pad1)*%
X174286666Y-84306500D02*
X185420000Y-84306500D01*
X152020000Y-84306500D02*
X163153333Y-84306500D01*
X163153333Y-84306500D02*
X174286666Y-84306500D01*
%TD*%
M02*
