%TF.GenerationSoftware,KiCad,Pcbnew,(6.0.11)*%
%TF.CreationDate,2023-02-01T23:46:18-08:00*%
%TF.ProjectId,ath,6174682e-6b69-4636-9164-5f7063625858,Original*%
%TF.SameCoordinates,Original*%
%TF.FileFunction,Soldermask,Top*%
%TF.FilePolarity,Negative*%
%FSLAX46Y46*%
G04 Gerber Fmt 4.6, Leading zero omitted, Abs format (unit mm)*
G04 Created by KiCad (PCBNEW (6.0.11)) date 2023-02-01 23:46:18*
%MOMM*%
%LPD*%
G01*
G04 APERTURE LIST*
%ADD10C,1.400000*%
%ADD11O,1.400000X1.400000*%
%ADD12R,1.130000X1.130000*%
%ADD13C,1.130000*%
%ADD14R,1.050000X1.500000*%
%ADD15O,1.050000X1.500000*%
%ADD16C,1.800000*%
%ADD17R,1.800000X1.800000*%
%ADD18C,2.000000*%
%ADD19R,1.408000X1.408000*%
%ADD20C,1.408000*%
%ADD21C,1.727200*%
%ADD22R,1.727200X1.727200*%
G04 APERTURE END LIST*
D10*
%TO.C,R2*%
X187960000Y-66040000D03*
D11*
X187960000Y-73660000D03*
%TD*%
D12*
%TO.C,IC0*%
X151130000Y-70010000D03*
D13*
X153670000Y-70010000D03*
X156210000Y-70010000D03*
X158750000Y-70010000D03*
X161290000Y-70010000D03*
X163830000Y-70010000D03*
X166370000Y-70010000D03*
X168910000Y-70010000D03*
X168910000Y-62070000D03*
X166370000Y-62070000D03*
X163830000Y-62070000D03*
X161290000Y-62070000D03*
X158750000Y-62070000D03*
X156210000Y-62070000D03*
X153670000Y-62070000D03*
X151130000Y-62070000D03*
%TD*%
D14*
%TO.C,T3*%
X170712712Y-78740000D03*
D15*
X171982712Y-78740000D03*
X173252712Y-78740000D03*
%TD*%
D14*
%TO.C,T1*%
X157166045Y-78740000D03*
D15*
X158436045Y-78740000D03*
X159706045Y-78740000D03*
%TD*%
D16*
%TO.C,D2*%
X174286666Y-84306500D03*
D17*
X174286666Y-86465500D03*
D16*
X174286666Y-88624500D03*
X174286666Y-90783500D03*
%TD*%
D18*
%TO.C,PWR-0*%
X142240000Y-35420000D03*
%TD*%
D14*
%TO.C,T2*%
X163939378Y-78740000D03*
D15*
X165209378Y-78740000D03*
X166479378Y-78740000D03*
%TD*%
D19*
%TO.C,PSW0*%
X135668872Y-43140000D03*
D20*
X135668872Y-40640000D03*
X135668872Y-38140000D03*
%TD*%
D18*
%TO.C,SW2*%
X138918872Y-71410000D03*
X132418872Y-71410000D03*
X138918872Y-75910000D03*
X132418872Y-75910000D03*
%TD*%
D16*
%TO.C,D0*%
X152020000Y-84306500D03*
D17*
X152020000Y-86465500D03*
D16*
X152020000Y-88624500D03*
X152020000Y-90783500D03*
%TD*%
D18*
%TO.C,SW1*%
X138918872Y-61250000D03*
X132418872Y-61250000D03*
X138918872Y-65750000D03*
X132418872Y-65750000D03*
%TD*%
D16*
%TO.C,D1*%
X163153333Y-84306500D03*
D17*
X163153333Y-86465500D03*
D16*
X163153333Y-88624500D03*
X163153333Y-90783500D03*
%TD*%
D18*
%TO.C,SW0*%
X132418872Y-51090000D03*
X138918872Y-51090000D03*
X132418872Y-55590000D03*
X138918872Y-55590000D03*
%TD*%
D21*
%TO.C,CTRL0*%
X175260000Y-38100000D03*
X172720000Y-38100000D03*
X170180000Y-38100000D03*
X167640000Y-38100000D03*
X168790600Y-41025900D03*
X166250600Y-41025900D03*
X179204600Y-41025900D03*
X176664000Y-41025900D03*
X160020000Y-53340000D03*
X157480000Y-53340000D03*
X167640000Y-53340000D03*
X170180000Y-53340000D03*
X172720000Y-53340000D03*
X175260000Y-53340000D03*
X177800000Y-53340000D03*
X180340000Y-53340000D03*
X182880000Y-53340000D03*
X185420000Y-53340000D03*
X185420000Y-38100000D03*
X182880000Y-38100000D03*
X180340000Y-38100000D03*
X177800000Y-38100000D03*
X154940000Y-39370000D03*
D22*
X165100000Y-53340000D03*
X160020000Y-38100000D03*
X154940000Y-49530000D03*
X154940000Y-52070000D03*
D21*
X157480000Y-38100000D03*
X162560000Y-53340000D03*
X162560000Y-38100000D03*
X154940000Y-44450000D03*
X154940000Y-41910000D03*
X165100000Y-38100000D03*
X154940000Y-46990000D03*
%TD*%
D18*
%TO.C,PWR+0*%
X147320000Y-35420000D03*
%TD*%
D16*
%TO.C,D3*%
X185420000Y-84306500D03*
D17*
X185420000Y-86465500D03*
D16*
X185420000Y-88624500D03*
X185420000Y-90783500D03*
%TD*%
D10*
%TO.C,R0*%
X177800000Y-66040000D03*
D11*
X177800000Y-73660000D03*
%TD*%
D14*
%TO.C,T0*%
X150392712Y-78740000D03*
D15*
X151662712Y-78740000D03*
X152932712Y-78740000D03*
%TD*%
D10*
%TO.C,R1*%
X182880000Y-66040000D03*
D11*
X182880000Y-73660000D03*
%TD*%
M02*
